HIERARCHY
ROOT Hips
{
    OFFSET 0.000000 0.000000 0.000000
    CHANNELS 6 Xposition Yposition Zposition Zrotation Xrotation Yrotation
    JOINT Spine
    {
        OFFSET -0.000000 7.750029 0.000000
        CHANNELS 3 Zrotation Xrotation Yrotation
        JOINT Spine1
        {
            OFFSET -0.000000 19.767460 0.000000
            CHANNELS 3 Zrotation Xrotation Yrotation
            JOINT Neck
            {
                OFFSET -0.000000 19.686279 1.789662
                CHANNELS 3 Zrotation Xrotation Yrotation
                JOINT Head
                {
                    OFFSET -0.000000 13.231757 -1.890251
                    CHANNELS 3 Zrotation Xrotation Yrotation
                    End Site
                    {
                        OFFSET -0.000000 23.628138 0.000000
                    }
                }
            }
            JOINT LeftShoulder
            {
                OFFSET 3.736819 16.910755 -0.280982
                CHANNELS 3 Zrotation Xrotation Yrotation
                JOINT LeftArm
                {
                    OFFSET 13.626117 0.000000 0.000000
                    CHANNELS 3 Zrotation Xrotation Yrotation
                    JOINT LeftForeArm
                    {
                        OFFSET 31.364786 0.000000 0.000000
                        CHANNELS 3 Zrotation Xrotation Yrotation
                        JOINT LeftHand
                        {
                            OFFSET 23.389509 0.000000 0.000000
                            CHANNELS 3 Zrotation Xrotation Yrotation
                            End Site
                            {
                                OFFSET 14.176883 0.000000 0.000000
                            }
                        }
                    }
                }
            }
            JOINT RightShoulder
            {
                OFFSET -3.821718 16.910755 -0.280982
                CHANNELS 3 Zrotation Xrotation Yrotation
                JOINT RightArm
                {
                    OFFSET -13.626117 0.000000 0.000000
                    CHANNELS 3 Zrotation Xrotation Yrotation
                    JOINT RightForeArm
                    {
                        OFFSET -31.364786 0.000000 0.000000
                        CHANNELS 3 Zrotation Xrotation Yrotation
                        JOINT RightHand
                        {
                            OFFSET -23.389509 0.000000 0.000000
                            CHANNELS 3 Zrotation Xrotation Yrotation
                            End Site
                            {
                                OFFSET -14.176883 0.000000 0.000000
                            }
                        }
                    }
                }
            }
        }
    }
    JOINT LeftUpLeg
    {
        OFFSET 9.451255 0.000000 0.000000
        CHANNELS 3 Zrotation Xrotation Yrotation
        JOINT LeftLeg
        {
            OFFSET -0.000000 -41.898624 0.000000
            CHANNELS 3 Zrotation Xrotation Yrotation
            JOINT LeftFoot
            {
                OFFSET -0.000000 -38.481331 0.000000
                CHANNELS 3 Zrotation Xrotation Yrotation
                JOINT LeftToeBase
                {
                    OFFSET -0.000000 -6.143315 14.176883
                    CHANNELS 3 Zrotation Xrotation Yrotation
                    End Site
                    {
                        OFFSET -0.000000 0.000000 3.780502
                    }
                }
            }
        }
    }
    JOINT RightUpLeg
    {
        OFFSET -9.451255 0.000000 0.000000
        CHANNELS 3 Zrotation Xrotation Yrotation
        JOINT RightLeg
        {
            OFFSET -0.000000 -41.898624 0.000000
            CHANNELS 3 Zrotation Xrotation Yrotation
            JOINT RightFoot
            {
                OFFSET -0.000000 -38.481331 0.000000
                CHANNELS 3 Zrotation Xrotation Yrotation
                JOINT RightToeBase
                {
                    OFFSET -0.000000 -6.143315 14.176883
                    CHANNELS 3 Zrotation Xrotation Yrotation
                    End Site
                    {
                        OFFSET -0.000000 0.000000 3.780502
                    }
                }
            }
        }
    }
}
MOTION
Frames:    12
Frame Time:    0.010000
-15.922901    77.770126    -20.949516    -2.769426    1.283162    168.044601    1.299083    19.404224    -1.306823    -3.343748    18.260075    -0.547153    -4.116661    41.818626    4.943319    -4.130016    -38.751133    2.108711    10.490808    -10.842985    -19.031132    -35.110981    26.732151    -27.053352    -5.324738    -47.536049    -25.055477    -13.786283    -46.958191    -16.716528    -10.357858    -3.086118    16.894054    31.875710    13.838782    27.139441    15.284538    -31.864122    129.329269    36.764153    -49.299488    29.946402    16.980982    -29.679176    13.900723    -16.836721    62.150703    5.110668    2.011693    -27.825199    22.288496    0.000000    0.000000    0.000000    -19.773376    -32.133770    -6.428983    23.657057    64.328445    -3.952965    -7.602100    -31.314053    -27.357965    0.000000    0.000000    0.000000    
-15.924735    77.752884    -20.948128    -2.757104    1.302486    168.100937    1.295589    19.559864    -1.333191    -3.325794    18.312607    -0.573738    -4.035986    41.664978    4.980043    -4.321178    -38.942394    2.077880    10.705293    -10.993524    -19.232006    -35.247837    27.222710    -26.729563    -6.332377    -46.358452    -26.825655    -10.257798    -46.573410    -13.307859    -10.195804    -3.207887    16.756506    32.882572    11.536639    26.579527    15.573643    -32.596474    130.678558    36.483444    -50.945938    30.478121    17.049139    -29.620989    13.444645    -17.932535    61.957348    5.906826    2.324792    -27.942636    22.566345    0.000000    0.000000    0.000000    -19.886461    -32.074398    -6.645577    23.669600    64.356621    -3.902580    -7.578698    -31.340296    -27.277212    0.000000    0.000000    0.000000    
-15.941194    77.713905    -20.893244    -2.681505    1.096616    168.107971    1.378758    19.644245    -1.363947    -3.382159    18.156010    -0.584658    -3.602071    41.685017    4.976237    -5.050717    -39.190830    1.830576    11.241388    -10.585986    -19.247570    -35.534344    28.799465    -26.317612    -6.707624    -46.156796    -30.765226    -8.735328    -46.769753    -12.494618    -9.351206    -2.940067    16.412701    34.184914    5.624601    26.809111    16.962196    -28.517004    130.434769    32.515171    -51.239037    27.839859    17.113565    -29.995190    13.583173    -17.541056    62.228146    5.657959    2.289622    -27.916630    22.597076    0.000000    0.000000    0.000000    -19.926702    -32.278721    -6.838453    23.835472    64.348770    -3.968349    -7.648528    -31.298628    -27.255854    0.000000    0.000000    0.000000    
-15.981030    77.635048    -20.810055    -2.889057    0.683359    168.092163    1.026803    19.461525    -1.243936    -3.005809    18.047855    -0.590457    -4.911152    41.939663    5.462984    -3.745216    -40.104649    2.569516    11.398065    -10.164826    -19.019726    -36.230587    30.960831    -25.690676    -7.756163    -48.001686    -37.245892    -10.549903    -48.851383    -14.415437    -9.779788    -3.257764    16.572117    35.800465    4.119669    25.474913    16.371025    -30.601301    130.063614    31.560457    -51.748566    27.995913    16.995031    -30.529852    13.666374    -17.448303    62.299583    5.615660    2.349748    -28.075071    22.692219    0.000000    0.000000    0.000000    -20.309265    -32.834164    -7.198340    24.077370    64.507515    -4.110160    -7.571571    -31.377918    -27.177105    0.000000    0.000000    0.000000    
-15.987094    77.624687    -20.790037    -2.843274    0.556142    168.111115    0.858342    19.594650    -1.088187    -2.495472    17.970222    -0.545379    -4.879431    42.071667    5.471548    -4.424405    -40.409691    2.239604    11.362688    -9.770865    -18.643934    -37.191193    32.866932    -25.254473    -8.778252    -50.068848    -43.964218    -17.409948    -50.385715    -19.761919    -9.682165    -3.330813    16.219923    37.284458    0.287903    25.308233    16.208677    -29.679630    128.106705    27.844591    -50.890892    25.150354    17.123652    -30.674389    13.580420    -17.841120    62.310135    5.806273    2.481876    -28.101587    22.848137    0.000000    0.000000    0.000000    -20.369587    -32.924595    -7.446239    24.035130    64.501648    -4.061691    -7.511410    -31.349037    -27.042564    0.000000    0.000000    0.000000    
-16.005283    77.630829    -20.775679    -2.860481    0.432750    168.157990    0.611387    19.762156    -0.811151    -1.924945    17.779819    -0.403521    -4.785710    42.070656    5.151665    -4.641165    -40.185913    1.836037    11.175026    -9.616759    -18.266096    -38.384186    34.088440    -24.976011    -9.949546    -50.763878    -50.867081    -23.145222    -50.770409    -22.811573    -9.661451    -3.579862    15.977068    38.276943    -1.425202    24.496552    14.962414    -31.157068    125.653015    23.711533    -49.989948    23.036501    17.018587    -30.829302    13.405852    -17.771421    62.266312    5.858686    2.484945    -28.146637    22.878815    0.000000    0.000000    0.000000    -20.532335    -32.998070    -7.750322    23.952148    64.474335    -4.009800    -7.404524    -31.298691    -26.835970    0.000000    0.000000    0.000000    
-16.132889    77.576614    -20.698620    -3.190454    0.055334    168.131927    0.447671    19.539413    -0.555662    -1.844189    17.560406    -0.193775    -3.765072    41.222794    4.037163    -5.264447    -38.041187    0.782898    10.910236    -9.510798    -17.889498    -39.299419    34.721970    -24.675055    -12.402865    -50.979656    -58.567322    -28.112503    -51.442791    -24.566402    -9.331583    -4.874445    15.950474    39.187256    -2.133722    22.985641    14.523844    -32.143764    122.922859    18.792498    -50.094307    19.629044    16.715254    -31.403004    13.368903    -17.941103    62.354637    6.183129    2.540401    -28.089355    22.909012    0.000000    0.000000    0.000000    -21.176476    -33.547653    -8.194910    24.225954    64.616127    -4.163645    -7.309330    -31.305040    -26.677513    0.000000    0.000000    0.000000    
-16.151598    77.587143    -20.697468    -3.262812    0.019469    168.189133    0.400764    19.541504    -0.222884    -1.662008    17.650421    0.103844    -4.129022    41.520420    3.799405    -4.351186    -38.244045    0.845645    10.343771    -9.955070    -17.507439    -39.258595    35.444546    -24.818037    -14.482927    -49.128414    -65.695000    -25.434511    -51.794823    -22.862482    -9.062696    -4.498423    15.923721    38.927280    -3.184417    22.227095    13.487256    -34.039032    119.441063    14.413165    -49.767159    17.460024    16.403559    -31.602688    13.960532    -15.994624    62.702435    4.586270    2.222220    -27.954126    22.693951    0.000000    0.000000    0.000000    -21.404465    -33.540230    -8.475953    24.130560    64.605026    -4.017482    -6.820238    -31.369473    -26.384962    0.000000    0.000000    0.000000    
-16.167494    77.591545    -20.698530    -3.332988    0.035641    168.256439    0.453885    19.564575    0.116831    -1.886232    17.697771    0.488843    -3.861012    41.692783    3.389431    -3.658811    -38.058723    0.810778    10.266361    -10.028242    -17.430246    -38.322891    36.315388    -25.690823    -14.241314    -47.422699    -70.733772    -22.778708    -51.149422    -21.915010    -8.396071    -4.680100    15.716669    38.409031    -3.144383    21.255070    13.214149    -35.553795    115.834267    9.786464    -50.197960    14.945941    16.260584    -31.615557    13.669832    -16.347713    62.612389    5.038057    2.179082    -27.947617    22.693306    0.000000    0.000000    0.000000    -21.633045    -33.508469    -8.928404    23.755531    64.736847    -3.503641    -6.751647    -31.319723    -26.311636    0.000000    0.000000    0.000000    
-16.184309    77.600243    -20.687561    -3.408177    0.041797    168.323959    0.517159    19.626644    0.447513    -2.239610    17.620966    0.884190    -3.749732    41.814964    3.076812    -2.485875    -37.700413    1.063023    10.592970    -9.717644    -17.442398    -37.229179    36.808960    -26.935715    -14.533614    -46.026310    -76.377541    -19.823507    -51.238441    -20.585981    -7.745516    -4.522041    15.710307    38.059383    -3.077542    20.217024    13.090930    -37.152176    112.126015    6.821231    -50.697689    13.357656    16.080151    -31.658134    13.463473    -16.438232    62.542381    5.288329    2.188679    -27.899502    22.687452    0.000000    0.000000    0.000000    -21.824593    -33.451580    -8.925085    24.116398    64.606949    -4.029513    -6.685857    -31.361475    -26.079138    0.000000    0.000000    0.000000    
-16.196306    77.595482    -20.673025    -3.448163    0.093229    168.385513    0.623506    19.740356    0.714178    -2.690760    17.614307    1.239623    -3.593064    41.666313    2.988183    -1.731373    -37.115719    1.375518    11.141024    -9.744312    -17.316584    -36.413815    37.730488    -28.220470    -11.615105    -46.087948    -79.773628    -21.074961    -50.008511    -20.712086    -7.440798    -4.252782    15.836119    37.582848    -1.915908    19.331629    13.448702    -39.786335    108.838432    3.626760    -52.662014    10.176456    15.937076    -31.655611    13.315338    -16.371685    62.539307    5.250384    2.170685    -27.896461    22.697094    0.000000    0.000000    0.000000    -21.948107    -33.324730    -8.608590    24.894470    64.349915    -4.808935    -6.596263    -31.521191    -26.067730    0.000000    0.000000    0.000000    
-16.204638    77.599396    -20.642538    -3.470849    0.087583    168.460342    0.770432    19.771236    0.867584    -3.284490    17.732395    1.514387    -1.870087    41.988930    2.670696    -3.591816    -37.402149    0.630135    11.995146    -9.898793    -17.188635    -36.437222    38.151722    -28.915955    -11.591596    -45.832916    -85.413239    -21.287340    -50.361298    -20.943836    -7.015967    -3.198844    16.334549    36.983505    -1.074444    18.959532    12.658225    -42.985909    104.237534    3.535844    -53.648567    10.802521    15.820036    -31.673492    12.701995    -17.179193    62.313633    6.297596    2.131644    -27.967606    22.645239    0.000000    0.000000    0.000000    -22.039209    -33.346073    -8.990833    24.395727    64.493027    -4.352117    -6.618284    -31.453259    -25.964146    0.000000    0.000000    0.000000    
